<svg xmlns="http://www.w3.org/2000/svg" viewBox="0 0 256 256" role="img" aria-label="Fedora Technologies placeholder logo">
  <defs>
    <linearGradient id="g" x1="0" y1="0" x2="1" y2="1">
      <stop offset="0" stop-color="#22d3ee"/>
      <stop offset="1" stop-color="#0ea5e9"/>
    </linearGradient>
    <radialGradient id="bg" cx="30%" cy="25%" r="90%">
      <stop offset="0" stop-color="#0b1636"/>
      <stop offset="1" stop-color="#020617"/>
    </radialGradient>
    <filter id="glow" x="-40%" y="-40%" width="180%" height="180%">
      <feGaussianBlur stdDeviation="6" result="b"/>
      <feColorMatrix in="b" type="matrix"
        values="0 0 0 0 0.13
                0 0 0 0 0.83
                0 0 0 0 0.93
                0 0 0 0.7 0" result="c"/>
      <feMerge>
        <feMergeNode in="c"/>
        <feMergeNode in="SourceGraphic"/>
      </feMerge>
    </filter>
  </defs>
  <rect width="256" height="256" rx="42" fill="url(#bg)"/>
  <path d="M64 78c22-20 54-30 84-30 31 0 52 8 66 20 6 5 6 14 0 19-16 13-41 21-66 21-25 0-52-7-84-21-6-3-6-13 0-19Z"
        fill="url(#g)" filter="url(#glow)" opacity="0.95"/>
  <path d="M74 138c0-22 20-38 54-38h28c34 0 54 16 54 38 0 36-44 62-68 62s-68-26-68-62Z"
        fill="none" stroke="url(#g)" stroke-width="10" stroke-linejoin="round" opacity="0.9"/>
  <path d="M95 156h66" stroke="url(#g)" stroke-width="10" stroke-linecap="round" opacity="0.85"/>
  <text x="128" y="232" text-anchor="middle" font-family="system-ui, -apple-system, Segoe UI, sans-serif"
        font-size="18" fill="#93c5fd" letter-spacing="2">FEDORA</text>
</svg>
